<svg width="181" height="44" viewBox="0 0 181 44" fill="none" xmlns="http://www.w3.org/2000/svg">
<path d="M32.3619 38.83H20.9984L10.5912 26.8414C10.0395 27.4665 0.882596 37.8003 0 38.7564V27.0988C5.29558 21.1413 12.9447 12.4624 18.2035 6.50488H28.5005L15.9971 20.7L32.3619 38.83Z" fill="white"/>
<path d="M7.27198 0V12.0989C6.27906 13.2022 1.13059 18.9023 0.0273438 20.1158L0.064118 0H7.27198Z" fill="#FF6600"/>
<path d="M42.6041 32.8285H59.4764L58.9748 26.946H43.1513L42.6041 32.8285ZM50.9491 18.7835L55.4635 29.1348L55.1899 31.0957L59.0204 38.9846H67.7758L50.9491 5.05762L34.168 38.9846H42.8777L46.845 30.7765L46.4802 29.0892L50.9491 18.7835Z" fill="white"/>
<path d="M90.0575 19.3763L96.6696 37.6166H105.562L90.0575 5.46802L74.5076 37.6166H83.3997L90.0575 19.3763ZM100.546 38.9846V44.0007H108.207V32.3725H71.8627V44.0007H79.5237V38.9846H100.546Z" fill="white"/>
<path d="M114.538 7.06405V38.9846H122.244V7.06405H114.538ZM119.371 13.4026H125.619C127.169 13.4026 128.385 13.7522 129.267 14.4514C130.148 15.1506 130.589 16.169 130.589 17.5066C130.589 18.8139 130.148 19.8171 129.267 20.5163C128.385 21.2155 127.169 21.5651 125.619 21.5651H119.371V27.9036H125.619C128.324 27.9036 130.589 27.4932 132.413 26.6724C134.268 25.8212 135.666 24.6204 136.608 23.0699C137.551 21.4891 138.022 19.6347 138.022 17.5066C138.022 15.3178 137.551 13.4482 136.608 11.8977C135.666 10.3473 134.268 9.16169 132.413 8.34087C130.589 7.48966 128.324 7.06405 125.619 7.06405H119.371V13.4026Z" fill="white"/>
<path d="M143.861 7.06405V38.9846H151.568V7.06405H143.861ZM148.695 24.4836H154.942C155.976 24.4836 156.857 24.6356 157.587 24.9396C158.347 25.2436 158.925 25.6996 159.32 26.3076C159.715 26.9156 159.913 27.6604 159.913 28.542C159.913 29.4236 159.715 30.1837 159.32 30.8221C158.925 31.4301 158.347 31.8861 157.587 32.1901C156.857 32.4941 155.976 32.6461 154.942 32.6461H148.695V38.9846H154.942C157.648 38.9846 159.913 38.5742 161.737 37.7534C163.591 36.9022 164.989 35.7013 165.932 34.1509C166.874 32.5701 167.345 30.7005 167.345 28.542C167.345 26.3836 166.874 24.5292 165.932 22.9787C164.989 21.4283 163.591 20.2427 161.737 19.4219C159.913 18.5707 157.648 18.145 154.942 18.145H148.695V24.4836Z" fill="white"/>
<path d="M172.836 38.5446V27.0341L180.679 18.208V38.5446H172.836Z" fill="#FF6600"/>
<path d="M172.836 20.042V6.61914H180.559V11.9515L172.836 20.042Z" fill="white"/>
</svg>
